<?xml version="1.0" encoding="UTF-8" standalone="no"?>
<!-- Created with Inkscape (http://www.inkscape.org/) -->

<svg
   xmlns:dc="http://purl.org/dc/elements/1.1/"
   xmlns:cc="http://creativecommons.org/ns#"
   xmlns:rdf="http://www.w3.org/1999/02/22-rdf-syntax-ns#"
   xmlns:svg="http://www.w3.org/2000/svg"
   xmlns="http://www.w3.org/2000/svg"
   xmlns:sodipodi="http://sodipodi.sourceforge.net/DTD/sodipodi-0.dtd"
   xmlns:inkscape="http://www.inkscape.org/namespaces/inkscape"
   height="32"
   width="32"
   viewBox="0 0 8.4666665 8.4666669"
   version="1.1"
   id="svg4"
   inkscape:version="0.91 r13725"
   sodipodi:docname="edit.svg">
  <defs
     id="defs8" />
  <sodipodi:namedview
     pagecolor="#8488ff"
     bordercolor="#666666"
     borderopacity="1"
     objecttolerance="10"
     gridtolerance="10"
     guidetolerance="10"
     inkscape:pageopacity="0"
     inkscape:pageshadow="2"
     inkscape:window-width="1920"
     inkscape:window-height="961"
     id="namedview6"
     showgrid="false"
     units="px"
     inkscape:zoom="4.7572176"
     inkscape:cx="-82.752519"
     inkscape:cy="-16.573339"
     inkscape:window-x="0"
     inkscape:window-y="24"
     inkscape:window-maximized="1"
     inkscape:current-layer="svg4" />
  <metadata
     id="metadata2">
    <rdf:RDF>
      <cc:Work
         rdf:about="">
        <dc:format>image/svg+xml</dc:format>
        <dc:type
           rdf:resource="http://purl.org/dc/dcmitype/StillImage" />
        <dc:title></dc:title>
      </cc:Work>
    </rdf:RDF>
  </metadata>
  <path
     inkscape:connector-curvature="0"
     d="M 7.6952602,2.8884566 7.3653192,3.2185516 5.3855053,1.2390132 5.7154459,0.9088874 c 0.3644657,-0.36451241 0.9554975,-0.36451241 1.3199937,0 l 0.6598206,0.6599898 c 0.3639742,0.364312 0.3639742,0.9550982 0,1.3195794 z M 3.0758888,6.8472873 c -0.091113,0.091113 -0.091113,0.2386745 0,0.3298039 0.091159,0.091619 0.2387974,0.091619 0.3299101,0 L 7.0354396,3.5484466 6.7051306,3.2183209 3.0758888,6.8472873 Z M 1.426062,5.1978441 c -0.091159,0.091189 -0.091159,0.2386905 0,0.3298643 0.091112,0.091128 0.238751,0.091128 0.3299094,0 L 5.3855053,1.8987874 5.0557034,1.5688772 1.426062,5.1978441 Z M 5.7150158,2.2284514 2.0858043,5.8575879 c -0.1822395,0.1818863 -0.1817787,0.4775801 0,0.6598206 0.1823179,0.1822563 0.4775335,0.183102 0.6602512,-5.212e-4 L 6.3752664,2.8884108 5.7150158,2.2284054 Z M 2.7451173,7.5061542 C 2.6335266,7.3944248 2.5797388,7.2528321 2.5597227,7.1069322 c -0.047436,0.00733 -0.095206,0.014135 -0.1440074,0.014135 -0.2492755,0 -0.4833958,-0.097436 -0.6597439,-0.2737838 C 1.5796227,6.6704903 1.4825719,6.4366922 1.4825719,6.1874486 c 0,-0.045445 0.00685,-0.089744 0.013224,-0.1338996 C 1.3449724,6.0330058 1.205565,5.9669445 1.0962051,5.8575851 1.0857148,5.8471822 1.0820989,5.8330251 1.0725563,5.8216089 L 0.50295675,8.1007014 2.7761253,7.5316554 c -0.010009,-0.00912 -0.021352,-0.015958 -0.030982,-0.025508 z"
     id="path5-3"
     style="fill:#000000;fill-opacity:0.50196078;stroke:#000000;stroke-width:0.05077198;stroke-miterlimit:4;stroke-dasharray:none;stroke-opacity:0.50196078" />
  <path
     inkscape:connector-curvature="0"
     d="M 7.6280202,2.7921418 7.2980794,3.1222366 5.3182651,1.1426982 5.6482059,0.81257241 c 0.3644656,-0.36451239 0.9554975,-0.36451239 1.3199936,0 L 7.6280202,1.4725621 c 0.3639741,0.3643121 0.3639741,0.9550984 0,1.3195797 z M 3.0086486,6.7509704 c -0.091113,0.091113 -0.091113,0.2386744 0,0.3298039 0.091159,0.091618 0.2387976,0.091618 0.3299102,0 L 6.9681995,3.4521316 6.6378906,3.1220058 3.0086486,6.7509704 Z M 1.358822,5.1015279 c -0.091159,0.091189 -0.091159,0.2386906 0,0.3298643 0.091112,0.091128 0.2387509,0.091128 0.3299095,0 L 5.3182651,1.8024724 4.9884636,1.4725621 1.358822,5.1015279 Z M 5.6477758,2.1321364 2.0185644,5.761272 c -0.1822396,0.181886 -0.1817789,0.4775798 0,0.6598196 0.1823177,0.1822563 0.4775333,0.183102 0.6602514,-5.263e-4 L 6.3080264,2.7920958 5.6477758,2.1320905 Z M 2.6778776,7.4098373 C 2.5662865,7.2981081 2.5124988,7.1565151 2.4924826,7.0106153 c -0.047436,0.00733 -0.095206,0.014135 -0.1440074,0.014135 -0.2492754,0 -0.4833958,-0.097436 -0.6597437,-0.2737839 C 1.5123829,6.5741733 1.4153319,6.340376 1.4153319,6.0911318 c 0,-0.045446 0.00685,-0.089743 0.013224,-0.133899 C 1.2777324,5.9366896 1.1383252,5.8706276 1.028965,5.7612683 1.0184747,5.7508655 1.0148589,5.7367083 1.0053163,5.7252922 L 0.43571671,8.0043832 2.7088856,7.4353377 C 2.6988764,7.4262179 2.6875332,7.4193799 2.6779031,7.40983 Z"
     id="path5"
     style="fill:#ffffff;fill-opacity:1;stroke:#fafafa;stroke-width:0.05077198;stroke-miterlimit:4;stroke-dasharray:none;stroke-opacity:1" />
</svg>
